{
    "asset" : {
        "generator" : "Khronos glTF Blender I/O v1.7.33",
        "version" : "2.0"
    },
    "scene" : 0,
    "scenes" : [
        {
            "name" : "Scene",
            "nodes" : [
                0,
                1,
                2
            ]
        }
    ],
    "nodes" : [
        {
            "mesh" : 0,
            "name" : "Curve",
            "rotation" : [
                0.6973244547843933,
                -0.25270822644233704,
                -0.18386505544185638,
                0.6450355052947998
            ],
            "scale" : [
                2.0185272693634033,
                2.0185272693634033,
                2.0185272693634033
            ],
            "translation" : [
                -1.8826035261154175,
                0.5686190724372864,
                -0.12044943869113922
            ]
        },
        {
            "mesh" : 1,
            "name" : "Curve.001",
            "rotation" : [
                0.6973244547843933,
                -0.25270822644233704,
                -0.18386505544185638,
                0.6450355052947998
            ],
            "scale" : [
                2.0185272693634033,
                2.0185272693634033,
                2.0185272693634033
            ],
            "translation" : [
                -1.8826035261154175,
                0.5686190724372864,
                -0.12044943869113922
            ]
        },
        {
            "mesh" : 2,
            "name" : "Curve.002",
            "rotation" : [
                0.6973244547843933,
                -0.25270822644233704,
                -0.18386505544185638,
                0.6450355052947998
            ],
            "scale" : [
                2.0185272693634033,
                2.0185272693634033,
                2.0185272693634033
            ],
            "translation" : [
                -1.8826035261154175,
                0.5686190724372864,
                -0.12044943869113922
            ]
        }
    ],
    "materials" : [
        {
            "doubleSided" : true,
            "name" : "SVGMat.001",
            "pbrMetallicRoughness" : {
                "baseColorFactor" : [
                    0.7230551242828369,
                    0.7230551242828369,
                    0.7230551242828369,
                    1
                ],
                "metallicFactor" : 0,
                "roughnessFactor" : 0.4000000059604645
            }
        },
        {
            "doubleSided" : true,
            "name" : "SVGMat.002",
            "pbrMetallicRoughness" : {
                "baseColorFactor" : [
                    0.7681511640548706,
                    0.4019777774810791,
                    0.5457244515419006,
                    1
                ],
                "metallicFactor" : 0,
                "roughnessFactor" : 0.4000000059604645
            }
        },
        {
            "doubleSided" : true,
            "name" : "SVGMat.003",
            "pbrMetallicRoughness" : {
                "baseColorFactor" : [
                    0,
                    0.31813979148864746,
                    0.659721851348877,
                    1
                ],
                "metallicFactor" : 0,
                "roughnessFactor" : 0.4000000059604645
            }
        }
    ],
    "meshes" : [
        {
            "name" : "Curve",
            "primitives" : [
                {
                    "attributes" : {
                        "POSITION" : 0,
                        "NORMAL" : 1,
                        "TEXCOORD_0" : 2
                    },
                    "indices" : 3,
                    "material" : 0
                }
            ]
        },
        {
            "name" : "Curve.001",
            "primitives" : [
                {
                    "attributes" : {
                        "POSITION" : 4,
                        "NORMAL" : 5,
                        "TEXCOORD_0" : 6
                    },
                    "indices" : 7,
                    "material" : 1
                }
            ]
        },
        {
            "name" : "Curve.002",
            "primitives" : [
                {
                    "attributes" : {
                        "POSITION" : 8,
                        "NORMAL" : 9,
                        "TEXCOORD_0" : 10
                    },
                    "indices" : 11,
                    "material" : 2
                }
            ]
        }
    ],
    "accessors" : [
        {
            "bufferView" : 0,
            "componentType" : 5126,
            "count" : 2612,
            "max" : [
                0.7776843309402466,
                0.009999999776482582,
                -0.30280619859695435
            ],
            "min" : [
                0.3497362434864044,
                -0.009999999776482582,
                -0.6439051628112793
            ],
            "type" : "VEC3"
        },
        {
            "bufferView" : 1,
            "componentType" : 5126,
            "count" : 2612,
            "type" : "VEC3"
        },
        {
            "bufferView" : 2,
            "componentType" : 5126,
            "count" : 2612,
            "type" : "VEC2"
        },
        {
            "bufferView" : 3,
            "componentType" : 5123,
            "count" : 4740,
            "type" : "SCALAR"
        },
        {
            "bufferView" : 4,
            "componentType" : 5126,
            "count" : 2800,
            "max" : [
                0.7890196442604065,
                0.009999999776482582,
                -0.5713909864425659
            ],
            "min" : [
                0.36756631731987,
                -0.009999999776482582,
                -0.9120526313781738
            ],
            "type" : "VEC3"
        },
        {
            "bufferView" : 5,
            "componentType" : 5126,
            "count" : 2800,
            "type" : "VEC3"
        },
        {
            "bufferView" : 6,
            "componentType" : 5126,
            "count" : 2800,
            "type" : "VEC2"
        },
        {
            "bufferView" : 7,
            "componentType" : 5123,
            "count" : 5184,
            "type" : "SCALAR"
        },
        {
            "bufferView" : 8,
            "componentType" : 5126,
            "count" : 11348,
            "max" : [
                1.1174530982971191,
                0.019999999552965164,
                -0.10371518135070801
            ],
            "min" : [
                0.05847707390785217,
                -0.019999999552965164,
                -1.12831711769104
            ],
            "type" : "VEC3"
        },
        {
            "bufferView" : 9,
            "componentType" : 5126,
            "count" : 11348,
            "type" : "VEC3"
        },
        {
            "bufferView" : 10,
            "componentType" : 5126,
            "count" : 11348,
            "type" : "VEC2"
        },
        {
            "bufferView" : 11,
            "componentType" : 5123,
            "count" : 21048,
            "type" : "SCALAR"
        }
    ],
    "bufferViews" : [
        {
            "buffer" : 0,
            "byteLength" : 31344,
            "byteOffset" : 0
        },
        {
            "buffer" : 0,
            "byteLength" : 31344,
            "byteOffset" : 31344
        },
        {
            "buffer" : 0,
            "byteLength" : 20896,
            "byteOffset" : 62688
        },
        {
            "buffer" : 0,
            "byteLength" : 9480,
            "byteOffset" : 83584
        },
        {
            "buffer" : 0,
            "byteLength" : 33600,
            "byteOffset" : 93064
        },
        {
            "buffer" : 0,
            "byteLength" : 33600,
            "byteOffset" : 126664
        },
        {
            "buffer" : 0,
            "byteLength" : 22400,
            "byteOffset" : 160264
        },
        {
            "buffer" : 0,
            "byteLength" : 10368,
            "byteOffset" : 182664
        },
        {
            "buffer" : 0,
            "byteLength" : 136176,
            "byteOffset" : 193032
        },
        {
            "buffer" : 0,
            "byteLength" : 136176,
            "byteOffset" : 329208
        },
        {
            "buffer" : 0,
            "byteLength" : 90784,
            "byteOffset" : 465384
        },
        {
            "buffer" : 0,
            "byteLength" : 42096,
            "byteOffset" : 556168
        }
    ],
    "buffers" : [
        {
            "byteLength" : 598264,
            "uri" : "data:application/octet-stream;base64,"
        }
    ]
}
